<?xml version="1.0" encoding="UTF-8"?>
<svg width="294.36mm" height="76.349mm" version="1.1" viewBox="0 0 294.36 76.349" xml:space="preserve" xmlns="http://www.w3.org/2000/svg"><g transform="translate(.044759)"><path d="m186.37 65.559h93.236l-3.6862 10.191h-89.55z" fill="#69e05a" stroke-width=".26458"/><path d="m186.42 53.885h97.477l-3.6862 10.191h-93.807z" fill="#3dd4d4" stroke-width=".26458"/><path d="m186.38 42.105h101.85l-3.8612 10.191c-33.088-0.13046-73.221 0-98.019 0z" fill="#e5336e" stroke-width=".26458"/><path d="m21.894 75.782h-5.0915v-23.344h-0.09607l-4.2269 18.541h-3.0261l-4.2269-18.541h-0.096066v23.344h-4.8033v-33.623h6.6766l3.9868 18.06h0.09607l3.9387-18.06h6.8687zm13.161-34.104q3.8427 0 6.0042 2.3056 2.2095 2.2576 2.2095 6.1963v17.58q0 3.9387-2.2095 6.2443-2.1615 2.2576-6.0042 2.2576t-6.0522-2.2576q-2.1615-2.3056-2.1615-6.2443v-17.58q0-3.9387 2.1615-6.1963 2.2095-2.3056 6.0522-2.3056zm0 4.7073q-1.5371 0-2.3536 1.0087-0.76853 0.96066-0.76853 2.834v17.484q0 1.8733 0.76853 2.882 0.81656 0.96066 2.3536 0.96066t2.3056-0.96066q0.81656-1.0087 0.81656-2.882v-17.484q0-1.8733-0.81656-2.834-0.76853-1.0087-2.3056-1.0087zm20.462-4.2269q4.1309 0 6.2924 2.2095 2.1615 2.1615 2.1615 6.2924v16.619q0 4.1309-2.1615 6.3404-2.1615 2.1615-6.2924 2.1615h-7.301v-33.623zm-2.2095 4.7073v24.209h2.0174q1.8253 0 2.6899-1.0087 0.8646-1.0087 0.8646-3.1222v-15.947q0-2.1135-0.8646-3.1222-0.8646-1.0087-2.6899-1.0087zm20.702 24.113h8.5019v4.8033h-13.593v-33.623h5.0915zm19.357-29.3q3.8427 0 6.0042 2.3056 2.2095 2.2576 2.2095 6.1963v17.58q0 3.9387-2.2095 6.2443-2.1615 2.2576-6.0042 2.2576-3.8427 0-6.0522-2.2576-2.1615-2.3056-2.1615-6.2443v-17.58q0-3.9387 2.1615-6.1963 2.2095-2.3056 6.0522-2.3056zm0 4.7073q-1.5371 0-2.3536 1.0087-0.76853 0.96066-0.76853 2.834v17.484q0 1.8733 0.76853 2.882 0.81656 0.96066 2.3536 0.96066 1.5371 0 2.3056-0.96066 0.81656-1.0087 0.81656-2.882v-17.484q0-1.8733-0.81656-2.834-0.76853-1.0087-2.3056-1.0087zm29.204 29.396h-5.1876l-1.1048-7.6373h-5.6199l-1.1048 7.6373h-5.0915l5.812-33.623h6.4845zm-9.1743-26.418-2.0654 14.17h4.275l-2.0654-14.17zm20.126-7.205q4.1309 0 6.2924 2.2095 2.1615 2.1615 2.1615 6.2924v16.619q0 4.1309-2.1615 6.3404-2.1615 2.1615-6.2924 2.1615h-7.301v-33.623zm-2.2095 4.7073v24.209h2.0174q1.8253 0 2.6899-1.0087 0.8646-1.0087 0.8646-3.1222v-15.947q0-2.1135-0.8646-3.1222-0.8646-1.0087-2.6899-1.0087zm29.925 0h-9.2224v9.5106h7.4452v4.7073h-7.4452v9.9909h9.2224v4.7073h-14.314v-33.623h14.314zm15.803 28.916-4.0348-14.218h-2.3536v14.218h-5.0915v-33.623h7.3491q4.1309 0 6.2924 2.2095 2.1615 2.1615 2.1615 6.2924v2.4017q0 5.3317-3.6025 7.3971l4.6592 15.323zm-6.3884-28.916v9.9909h2.0654q1.8253 0 2.6899-1.0087t0.8646-3.1222v-1.7292q0-2.1135-0.8646-3.1222-0.8646-1.0087-2.6899-1.0087z" fill="#cacaca" style="white-space:pre" aria-label="MODLOADER"/><path d="m38.162 38.308-13.715-37.703h-10.485l-13.715 37.703h8.7374l2.4359-6.9899h15.568l2.4359 6.9899zm-13.239-13.503h-11.438l5.719-16.575zm50.783-5.3484c0-11.915-6.5663-18.852-19.116-18.852h-15.41v37.703h15.41c12.55 0 19.116-6.937 19.116-18.852zm-8.5256 0c0 8.102-3.3891 12.179-10.167 12.179h-7.3077v-24.359h7.3077c6.7781 0 10.167 4.0775 10.167 12.179zm31.984 18.852 13.715-37.703h-9.161l-9.7965 29.231-9.7965-29.231h-9.161l13.715 37.703zm46.97 0-13.715-37.703h-10.485l-13.715 37.703h8.7374l2.4359-6.9899h15.568l2.4359 6.9899zm-13.239-13.503h-11.438l5.719-16.575zm49.3 13.503v-37.703h-8.102v25.524l-15.886-25.524h-9.0551v37.703h8.102v-25.524l15.886 25.524zm23.194 0.52954c10.644 0 17.793-6.3015 17.793-14.933h-8.102c-0.63544 4.9247-3.7597 7.9961-9.6906 7.9961-7.0429 0-10.591-4.4481-10.591-12.444 0-7.9961 3.5479-12.444 10.591-12.444 6.0368 0 9.0552 3.2832 9.6906 7.6783h8.102c0-8.4726-7.3606-14.615-17.793-14.615-12.074 0-19.116 7.8902-19.116 19.381 0 11.491 7.0429 19.381 19.116 19.381zm50.148-0.52954v-6.937h-19.752v-9.0022h18.057v-6.5663h-18.057v-8.2608h19.752v-6.937h-28.277v37.703zm38.762-18.852c0-11.915-6.5663-18.852-19.116-18.852h-15.41v37.703h15.41c12.55 0 19.116-6.937 19.116-18.852zm-8.5256 0c0 8.102-3.3891 12.179-10.167 12.179h-7.3077v-24.359h7.3077c6.7781 0 10.167 4.0775 10.167 12.179z" fill="#c60a30" stroke-width=".30551" style="white-space:pre" aria-label="ADVANCED"/></g></svg>
